PathFileType	4	(X/Y/Z)	c:/Users/goper/Files/vsCode/490R/osim_files/A03/A03_Fast_01.trc
DataRate	CameraRate	NumFrames	NumMarkers	Units                	OrigDataRate	OrigDataStartFrame	OrigNumFrames
250.00	250.00	10	36	mm	250.0	1457	2330
                Frame#	Time	LPSIS			LASIS			LTH1			LTH2			LTH3			LTH4			LLFE			LMFE			LSH1			LSH2			LSH3			LSH4			LLMAL			LMMAL			LCAL			LMTP5			LTOE			LMTP1			RPSIS			RASIS			RTH1			RTH2			RTH3			RTH4			RLFE			RMFE			RSH1			RSH2			RSH3			RSH4			RLMAL			RMMAL			RCAL			RMTP1			RTOE			RMTP5		
		X1	Y1	Z1	X2	Y2	Z2	X3	Y3	Z3	X4	Y4	Z4	X5	Y5	Z5	X6	Y6	Z6	X7	Y7	Z7	X8	Y8	Z8	X9	Y9	Z9	X10	Y10	Z10	X11	Y11	Z11	X12	Y12	Z12	X13	Y13	Z13	X14	Y14	Z14	X15	Y15	Z15	X16	Y16	Z16	X17	Y17	Z17	X18	Y18	Z18	X19	Y19	Z19	X20	Y20	Z20	X21	Y21	Z21	X22	Y22	Z22	X23	Y23	Z23	X24	Y24	Z24	X25	Y25	Z25	X26	Y26	Z26	X27	Y27	Z27	X28	Y28	Z28	X29	Y29	Z29	X30	Y30	Z30	X31	Y31	Z31	X32	Y32	Z32	X33	Y33	Z33	X34	Y34	Z34	X35	Y35	Z35	X36	Y36	Z36

1457	5.82400	-2893.07300	1078.16345	286.02167	-3114.23242	992.43109	441.11090	-3055.52271	637.45532	455.34247	-3064.04297	595.43622	450.54846	-3115.73804	644.33081	442.54584	-3115.06592	600.55865	439.23279	-3059.20337	548.38757	439.00482	-3089.01709	551.03265	284.49463	-3075.98560	456.57993	427.38623	-3060.03882	409.87033	418.04510	-3011.98975	466.15625	430.23587	-3011.77637	418.86340	426.48523	-2982.34131	100.40003	368.83463	-2994.18091	108.66669	271.25906	-2912.86377	86.99413	314.64706	-3134.01489	45.11650	378.18497	-3161.89185	76.08937	308.09827	-3131.89111	56.06559	264.13879	-2905.29443	1079.11414	203.75314	-3160.67017	997.52094	148.05840	-3211.13599	653.90814	65.71388	-3222.02808	610.74695	70.78113	-3269.89209	666.66449	79.34223	-3274.63672	622.11133	81.21416	-3246.87231	581.13196	88.49632	-3264.99170	581.39948	214.05281	-3178.08203	545.43488	74.83601	-3159.64526	509.46094	61.01696	-3228.84351	508.87320	82.38462	-3199.78442	474.70578	67.78328	-2997.42944	240.33551	93.44667	0.00000	0.00000	0.00000	-2924.89990	236.82117	141.82858	-3074.30933	87.62122	200.79611	-3116.27954	91.97481	155.01942	-3075.81396	80.64845	83.62242
1458	5.82800	-2899.15894	1078.18262	286.13623	-3119.19629	992.36353	441.62805	-3057.59937	637.67511	454.92740	-3065.63354	595.46454	450.04269	-3117.74756	643.91138	442.13583	-3116.67871	600.15088	438.75949	-3060.15747	548.62677	438.36078	-3090.04126	550.89270	283.93417	-3075.07520	455.92184	427.38141	-3060.70459	409.92050	417.55920	-3012.80396	466.36411	429.73578	-3012.12842	419.31641	426.11621	-2982.40137	100.51989	368.77383	-2994.23511	108.68204	271.21564	-2913.26904	87.17019	314.55020	-3134.04761	45.12450	378.16907	-3161.93823	76.05922	308.04504	-3131.24561	54.83947	263.59369	-2910.85181	1079.11475	203.88084	-3166.11475	997.83679	148.85826	-3218.74414	654.67493	66.78007	-3231.01611	611.63757	72.57147	-3277.44189	667.92487	80.56451	-3282.58105	623.45013	82.51489	0.00000	0.00000	0.00000	-3274.91187	584.08160	215.64360	-3187.36523	545.17450	75.62184	-3168.17676	508.98563	62.00442	-3237.97168	509.67706	83.49498	-3211.77612	475.79871	68.21690	-3012.14014	236.26906	94.36118	0.00000	0.00000	0.00000	-2939.25879	230.81841	142.84204	-3093.43579	85.97574	201.64912	-3135.52344	91.48311	155.57051	-3094.33325	78.62032	84.37688
1459	5.83200	-2903.87183	1078.43445	286.15164	0.00000	0.00000	0.00000	-3061.18945	638.19385	454.79855	-3067.25098	595.56085	449.46777	-3119.79761	643.53204	441.71768	-3118.34155	599.78064	438.26526	-3061.17432	548.66205	437.78967	-3091.00317	550.76770	283.29660	-3075.86719	455.85098	426.40543	-3061.40894	410.01401	417.12967	-3013.64282	466.60373	429.22977	-3013.14819	419.25586	425.53198	-2982.47021	100.59955	368.72772	-2994.28394	108.75600	271.11392	-2913.40771	87.30701	314.59280	-3134.05933	45.14598	378.13016	-3161.82935	76.45488	309.13867	-3132.14941	55.69996	262.92340	-2917.07471	1078.95813	204.00734	-3174.23755	999.10291	149.05368	-3226.25659	655.36053	67.81214	-3238.82617	612.42633	73.75350	-3284.86401	669.12439	81.78316	-3290.22510	624.59442	83.81479	0.00000	0.00000	0.00000	-3280.46875	584.06439	216.23576	-3195.61353	544.84985	76.71680	-3178.59204	508.13745	63.74453	-3248.52222	510.61447	82.87969	-3221.32324	475.97894	69.38051	-3027.69531	232.38120	95.07819	0.00000	0.00000	0.00000	-2953.60571	224.77791	143.68295	-3112.06836	84.18304	202.67513	-3153.36914	90.46943	156.51514	-3113.24756	76.88827	85.36064
1460	5.83600	-2909.33423	1078.44116	286.18692	0.00000	0.00000	0.00000	-3063.30908	638.38342	454.38596	-3068.78198	595.50531	448.83606	-3121.87158	643.12323	441.27835	-3119.97144	599.37830	437.71078	-3062.11987	548.76123	437.19217	-3091.30444	550.65271	282.56308	-3077.26392	456.34109	426.34094	-3062.10474	410.12473	416.69315	-3014.38965	466.79819	428.66385	-3013.90161	419.42993	425.06998	-2982.48999	100.67621	368.67752	-2994.54126	108.77182	271.16547	-2912.59814	87.35960	314.24619	-3134.08423	45.16709	378.11398	-3161.88843	76.43664	309.10632	-3132.44287	55.72009	262.96112	-2922.64746	1078.93164	204.14079	-3180.08203	999.46503	149.66808	-3233.76172	656.04938	68.86008	-3246.51807	613.17194	74.98514	-3292.17212	670.21021	82.99909	-3297.88013	625.76874	85.12962	-3271.38330	584.00153	91.89227	-3288.06226	585.32001	217.32143	-3203.83105	544.35260	77.75916	-3186.89307	507.41425	64.19841	-3257.45410	511.34305	84.07241	-3230.84595	476.05923	70.55559	-3042.10620	228.29048	96.07288	0.00000	0.00000	0.00000	-2969.73071	218.61238	144.83473	-3131.22437	82.61621	203.61629	-3172.26343	90.13029	157.56252	-3131.99463	75.07833	86.33895
1461	5.84000	-2915.23340	1078.40283	286.22681	0.00000	0.00000	0.00000	-3065.21240	638.51556	453.92303	-3070.44409	595.56879	448.23532	-3123.97681	642.69135	440.80637	-3121.64429	599.00397	437.14993	-3063.07251	548.83582	436.58264	-3093.00513	550.49902	282.08649	-3075.66479	454.79419	423.57220	-3062.77319	410.19455	416.21417	-3015.16748	466.96417	428.16092	-3014.31274	419.74210	424.68704	-2982.54077	100.76022	368.64880	-2993.64844	108.83427	270.70209	-2912.80054	87.56804	314.20895	-3134.09863	45.16817	378.09357	-3161.92285	76.38537	309.06485	-3132.45923	55.63852	262.92303	-2927.62036	1078.93518	204.13875	-3185.88330	999.75848	150.30173	-3241.09424	656.59637	69.87259	-3254.07251	613.80017	76.19659	-3299.35645	671.21277	84.18373	-3305.32715	626.74396	86.41977	-3279.42432	584.70996	93.13657	-3295.53906	586.47272	218.41353	-3212.61353	543.52844	79.46279	-3196.34131	506.17215	65.85262	-3266.29395	511.92572	85.21061	-3239.83447	475.37277	71.15881	-3057.13965	223.83365	97.31885	0.00000	0.00000	0.00000	-2984.83179	212.81282	145.42526	-3150.16992	81.07114	204.72502	-3190.98340	89.64500	158.54817	-3150.70142	73.34225	87.43093
1462	5.84400	-2920.04834	1078.47803	286.24014	0.00000	0.00000	0.00000	-3067.36475	638.65894	453.48340	-3072.80713	595.52319	448.36780	-3126.04028	642.22699	440.33844	-3123.30664	598.56519	436.58881	-3063.99292	549.04590	435.88687	-3093.91699	550.33612	281.45068	0.00000	0.00000	0.00000	-3063.44727	410.24646	415.73608	-3015.94580	467.12186	427.63058	-3015.06055	419.88458	424.22824	-2982.59741	100.84698	368.56937	-2994.38159	108.64677	271.15137	-2912.83008	87.66192	314.13501	-3134.09692	45.15785	378.04514	-3161.97607	76.30042	309.00995	-3132.49268	55.57797	262.90790	-2933.20166	1078.86768	204.22440	-3191.66699	999.96423	150.89223	-3248.69043	656.79553	70.58195	-3261.49194	614.35236	77.37830	-3306.39209	672.07812	85.43250	-3312.74609	627.77136	87.72767	-3287.32886	585.25433	94.36176	-3302.82935	587.51288	219.47011	-3220.75269	542.80975	80.52316	-3204.62695	505.28885	66.46626	-3275.57642	512.17395	86.35550	-3249.39746	475.30933	72.28049	-3072.95654	219.83682	98.11588	0.00000	0.00000	0.00000	-3001.24780	206.36487	147.12212	-3169.00098	79.53202	205.96063	-3209.73340	89.20053	159.65871	-3170.55005	71.72795	88.74121
1463	5.84800	-2925.48389	1078.38135	286.29547	0.00000	0.00000	0.00000	-3069.35596	638.72015	453.02722	-3073.73340	595.59631	447.05826	-3128.14819	641.77704	439.86542	-3124.99268	598.13495	436.00021	-3064.94287	548.98907	435.34616	-3094.36328	550.20581	280.76489	-3077.23486	454.94077	422.60919	-3064.11548	410.32086	415.30978	-3016.70630	467.30234	427.08713	-3015.80469	420.04211	423.75165	-2982.63867	100.91296	368.52444	-2993.49072	108.91374	270.58734	-2912.63013	87.66916	314.13596	-3134.10645	45.14348	378.03284	-3162.01416	76.27520	308.99179	-3132.51660	55.49543	262.86737	-2939.20117	1078.58618	204.29373	-3197.54932	1000.19037	151.39833	-3255.69336	657.16406	71.68074	-3268.79321	614.88934	78.59097	-3313.33130	672.87677	86.65382	-3319.90332	628.56769	89.03387	-3295.07764	585.72864	95.62222	-3310.11011	588.46588	220.59692	-3228.72461	541.98712	81.58529	-3213.49927	504.22394	67.37319	-3284.02588	513.12341	88.53783	-3258.74463	475.07599	73.41531	-3087.88721	215.39703	99.43406	0.00000	0.00000	0.00000	-3016.34302	200.21669	147.94382	-3188.20435	78.25220	207.12184	-3228.51611	88.88605	160.85686	-3189.71924	70.11317	89.93333
1464	5.85200	-2930.95337	1078.27368	286.31033	0.00000	0.00000	0.00000	-3071.55322	638.88635	452.56589	-3075.43262	595.60962	446.49274	-3130.26172	641.31415	439.38269	-3126.70361	597.73706	435.47870	-3065.98364	549.11627	434.70273	-3095.94312	550.02795	280.30161	-3077.98291	454.91638	422.06030	-3064.82715	410.41635	414.87286	-3017.53491	467.45633	426.57626	-3016.55908	420.17410	423.27539	-2982.66724	101.00020	368.42636	-2993.75098	108.70850	270.88599	-2912.67554	87.73923	314.08923	-3134.10181	45.16013	378.02499	-3162.07227	76.20425	308.96182	-3132.58691	55.46494	262.84985	-2944.79248	1078.46863	204.35703	-3203.34351	1000.33594	151.93294	-3262.57568	657.43433	72.74216	-3275.97729	615.26611	79.80473	-3320.12817	673.55664	87.85222	-3326.91895	629.24683	90.34021	-3302.74829	586.15149	96.91235	-3317.18970	589.34052	221.67825	-3235.89893	541.23663	81.98442	-3222.22583	502.86475	68.58412	-3292.21265	512.93042	88.75465	-3268.08130	474.82587	74.58783	-3103.56201	211.39375	100.28504	0.00000	0.00000	0.00000	-3032.28003	194.16254	149.14264	-3207.34253	77.05039	208.48653	-3248.63110	89.51575	162.07672	-3208.97925	68.62330	91.24220
1465	5.85600	-2936.31567	1078.14795	286.29837	0.00000	0.00000	0.00000	-3073.56958	638.95825	452.11694	-3077.18848	595.67773	445.98666	-3132.38281	640.83862	438.92169	-3128.34155	597.52783	435.08142	-3066.80713	549.28345	433.81561	-3096.93945	549.85565	279.68500	-3078.77368	454.97324	421.58896	-3065.48608	410.44730	414.42532	-3018.35254	467.60254	426.07208	-3017.31616	420.29541	422.83441	-2982.74438	101.06812	368.42523	-2993.59399	108.97365	270.43042	-2912.70728	87.78165	314.04486	-3134.13232	45.16133	378.00528	-3162.11792	76.17013	308.95187	-3132.61597	55.41042	262.80014	-2950.36450	1078.19604	204.42555	-3209.15039	1000.41901	152.42001	-3269.28833	657.63782	73.87244	-3282.97729	615.58234	80.99792	-3326.77271	674.12494	89.09270	-3333.85205	629.86597	91.64952	-3310.22559	586.44275	98.22269	-3324.23926	590.10883	222.73372	-3244.50879	539.99646	83.66447	-3231.79370	501.56879	70.19243	-3300.46558	513.16809	89.93635	-3277.46289	474.55292	75.75303	-3119.30737	206.98181	101.61497	0.00000	0.00000	0.00000	-3048.38306	187.99594	150.10933	-3226.29297	75.80853	209.90663	-3267.44360	89.38354	163.38664	-3228.39795	67.30948	92.59824
1466	5.86000	-2941.78735	1077.98169	286.32898	-3159.11206	990.33643	444.47113	-3075.68604	639.02820	451.68552	-3078.92090	595.65802	445.47617	-3134.53491	640.34558	438.47488	-3130.06934	597.08142	434.57095	-3067.84961	549.34491	433.25989	-3097.51855	549.74615	279.04776	-3079.60425	454.99197	421.13730	-3066.27246	410.54474	414.04474	-3019.26221	467.84671	425.54907	-3018.06909	420.41345	422.41718	-2982.79297	101.16270	368.35519	-2993.63843	109.03184	270.34924	-2913.06006	87.87814	314.21851	-3134.18530	45.18035	377.98801	-3162.16675	76.08921	308.89130	-3133.17603	55.49241	263.10516	-2955.96802	1078.00745	204.44844	-3214.93140	1000.47083	152.88525	-3275.98267	657.78479	74.96806	-3289.82837	615.75623	82.19441	-3333.27515	674.55634	90.32536	-3340.63745	630.37537	92.96041	-3314.94995	588.02893	100.47079	-3331.20117	590.80316	223.82275	-3252.34058	538.73853	85.55657	-3240.41821	500.12408	71.30952	-3308.68286	513.29535	91.13647	-3286.74390	474.18161	76.92467	-3135.22583	202.92372	102.86023	0.00000	0.00000	0.00000	-3064.68921	181.98647	151.24870	-3245.57178	74.86492	211.24908	-3286.29102	89.35619	164.76375	-3247.82568	66.05412	94.03504
